NotoSansMarchen-Regular.ufo
<glyph name="pha_marc" format="2">
  <advance width="646"/>
  <unicode hex="11C7F"/>
  <outline>
    <contour>
      <point x="60" y="678" type="line"/>
      <point x="60" y="299" type="line"/>
      <point x="196" y="299" type="line"/>
      <point x="196" y="229" type="line"/>
      <point x="60" y="229" type="line"/>
      <point x="60" y="143" type="line"/>
      <point x="420" y="143" type="line"/>
      <point x="420" y="229" type="line"/>
      <point x="282" y="229" type="line"/>
      <point x="282" y="299" type="line"/>
      <point x="420" y="299" type="line"/>
      <point x="420" y="522" type="line"/>
      <point x="146" y="522" type="line"/>
      <point x="146" y="592" type="line"/>
      <point x="490" y="592" type="line"/>
      <point x="490" y="144" type="line"/>
      <point x="586" y="85" type="line"/>
      <point x="586" y="678" type="line"/>
    </contour>
    <contour>
      <point x="334" y="436" type="line"/>
      <point x="334" y="385" type="line"/>
      <point x="146" y="385" type="line"/>
      <point x="146" y="436" type="line"/>
    </contour>
  </outline>
</glyph>
<glyph name="ka_marc.sub" format="2">
  <unicode hex="11C92"/>
  <outline>
    <contour>
      <point x="-461" y="68" type="line"/>
      <point x="-461" y="-18" type="line"/>
      <point x="-295" y="-18" type="line"/>
      <point x="-295" y="-139" type="line"/>
      <point x="-342" y="-117"/>
      <point x="-404" y="-106"/>
      <point x="-461" y="-109" type="curve"/>
      <point x="-461" y="-410" type="line"/>
      <point x="-365" y="-469" type="line"/>
      <point x="-365" y="-193" type="line"/>
      <point x="-341" y="-191"/>
      <point x="-319" y="-196"/>
      <point x="-295" y="-208" type="curve"/>
      <point x="-295" y="-450" type="line"/>
      <point x="-199" y="-509" type="line"/>
      <point x="-199" y="-18" type="line"/>
      <point x="-129" y="-18" type="line"/>
      <point x="-129" y="-473" type="line"/>
      <point x="-33" y="-532" type="line"/>
      <point x="-33" y="68" type="line"/>
    </contour>
  </outline>
</glyph>
<glyph name="kha_marc.sub" format="2">
  <unicode hex="11C93"/>
  <outline>
    <contour>
      <point x="-221" y="-299" type="curve"/>
      <point x="-221" y="-174" type="line"/>
      <point x="-62" y="-174" type="line"/>
      <point x="-62" y="-88" type="line"/>
      <point x="-221" y="-88" type="line"/>
      <point x="-221" y="-18" type="line"/>
      <point x="-62" y="-18" type="line"/>
      <point x="-62" y="68" type="line"/>
      <point x="-483" y="68" type="line"/>
      <point x="-483" y="-18" type="line"/>
      <point x="-317" y="-18" type="line"/>
      <point x="-317" y="-88" type="line"/>
      <point x="-483" y="-88" type="line"/>
      <point x="-483" y="-531" type="line"/>
      <point x="-387" y="-531" type="line"/>
      <point x="-387" y="-174" type="line"/>
      <point x="-317" y="-174" type="line"/>
      <point x="-317" y="-381" type="line"/>
      <point x="-235" y="-381"/>
      <point x="-125" y="-386"/>
      <point x="-51" y="-497" type="curve"/>
      <point x="-5" y="-489" type="line"/>
      <point x="-55" y="-374"/>
      <point x="-137" y="-319"/>
    </contour>
  </outline>
</glyph>
<glyph name="nga_marc.sub" format="2">
  <unicode hex="11C95"/>
  <outline>
    <contour>
      <point x="-373" y="-336" type="curve"/>
      <point x="-373" y="-174" type="line"/>
      <point x="-118" y="-174" type="line"/>
      <point x="-100" y="-88" type="line"/>
      <point x="-236" y="-88" type="line"/>
      <point x="-236" y="-18" type="line"/>
      <point x="-100" y="-18" type="line"/>
      <point x="-100" y="68" type="line"/>
      <point x="-470" y="68" type="line"/>
      <point x="-470" y="-18" type="line"/>
      <point x="-332" y="-18" type="line"/>
      <point x="-332" y="-88" type="line"/>
      <point x="-470" y="-88" type="line"/>
      <point x="-470" y="-422" type="line"/>
      <point x="-199" y="-422"/>
      <point x="-129" y="-464"/>
      <point x="-68" y="-518" type="curve"/>
      <point x="-22" y="-510" type="line"/>
      <point x="-136" y="-367"/>
      <point x="-242" y="-339"/>
    </contour>
  </outline>
</glyph>
<glyph name="tha_marc.sub" format="2">
  <unicode hex="11C9B"/>
  <outline>
    <contour>
      <point x="-459" y="68" type="line"/>
      <point x="-459" y="-18" type="line"/>
      <point x="-127" y="-18" type="line"/>
      <point x="-127" y="-406" type="line"/>
      <point x="-197" y="-406" type="line"/>
      <point x="-197" y="-88" type="line"/>
      <point x="-459" y="-88" type="line"/>
      <point x="-459" y="-174" type="line"/>
      <point x="-293" y="-174" type="line"/>
      <point x="-293" y="-244" type="line"/>
      <point x="-459" y="-244" type="line"/>
      <point x="-459" y="-492" type="line"/>
      <point x="-363" y="-492" type="line"/>
      <point x="-363" y="-330" type="line"/>
      <point x="-293" y="-330" type="line"/>
      <point x="-293" y="-492" type="line"/>
      <point x="-31" y="-492" type="line"/>
      <point x="-31" y="68" type="line"/>
    </contour>
  </outline>
</glyph>
<glyph name="na_marc.sub" format="2">
  <unicode hex="11C9D"/>
  <outline>
    <contour>
      <point x="-38" y="-18" type="line"/>
      <point x="-38" y="68" type="line"/>
      <point x="-456" y="68" type="line"/>
      <point x="-456" y="-18" type="line"/>
      <point x="-300" y="-18" type="line"/>
      <point x="-300" y="-88" type="line"/>
      <point x="-456" y="-88" type="line"/>
      <point x="-456" y="-174" type="line"/>
      <point x="-300" y="-174" type="line"/>
      <point x="-300" y="-244" type="line"/>
      <point x="-456" y="-244" type="line"/>
      <point x="-456" y="-330" type="line"/>
      <point x="-300" y="-330" type="line"/>
      <point x="-300" y="-400" type="line"/>
      <point x="-456" y="-400" type="line"/>
      <point x="-456" y="-486" type="line"/>
      <point x="-204" y="-486" type="line"/>
      <point x="-204" y="-174" type="line"/>
      <point x="-134" y="-174" type="line"/>
      <point x="-134" y="-486" type="line"/>
      <point x="-38" y="-486" type="line"/>
      <point x="-38" y="-88" type="line"/>
      <point x="-204" y="-88" type="line"/>
      <point x="-204" y="-18" type="line"/>
    </contour>
  </outline>
</glyph>
<glyph name="pa_marc.sub" format="2">
  <unicode hex="11C9E"/>
  <outline>
    <contour>
      <point x="21" y="68" type="line"/>
      <point x="-358" y="68" type="line"/>
      <point x="-358" y="-164" type="line"/>
      <point x="-241" y="-164" type="line"/>
      <point x="-241" y="-226" type="line"/>
      <point x="-420" y="-226" type="line"/>
      <point x="-420" y="68" type="line"/>
      <point x="-516" y="68" type="line"/>
      <point x="-516" y="-312" type="line"/>
      <point x="-375" y="-312" type="line"/>
      <point x="-375" y="-382" type="line"/>
      <point x="-513" y="-382" type="line"/>
      <point x="-513" y="-468" type="line"/>
      <point x="-145" y="-468" type="line"/>
      <point x="-145" y="-382" type="line"/>
      <point x="-279" y="-382" type="line"/>
      <point x="-279" y="-312" type="line"/>
      <point x="-145" y="-312" type="line"/>
      <point x="-145" y="-78" type="line"/>
      <point x="-262" y="-78" type="line"/>
      <point x="-262" y="-18" type="line"/>
      <point x="-75" y="-18" type="line"/>
      <point x="-75" y="-468" type="line"/>
      <point x="21" y="-468" type="line"/>
    </contour>
  </outline>
</glyph>
<glyph name="pha_marc.sub" format="2">
  <unicode hex="11C9F"/>
  <outline>
    <contour>
      <point x="-480" y="68" type="line"/>
      <point x="-480" y="-311" type="line"/>
      <point x="-344" y="-311" type="line"/>
      <point x="-344" y="-381" type="line"/>
      <point x="-480" y="-381" type="line"/>
      <point x="-480" y="-467" type="line"/>
      <point x="-120" y="-467" type="line"/>
      <point x="-120" y="-381" type="line"/>
      <point x="-258" y="-381" type="line"/>
      <point x="-258" y="-311" type="line"/>
      <point x="-120" y="-311" type="line"/>
      <point x="-120" y="-88" type="line"/>
      <point x="-394" y="-88" type="line"/>
      <point x="-394" y="-18" type="line"/>
      <point x="-50" y="-18" type="line"/>
      <point x="-50" y="-465" type="line"/>
      <point x="46" y="-465" type="line"/>
      <point x="46" y="68" type="line"/>
    </contour>
    <contour>
      <point x="-206" y="-174" type="line"/>
      <point x="-206" y="-225" type="line"/>
      <point x="-394" y="-225" type="line"/>
      <point x="-394" y="-174" type="line"/>
    </contour>
  </outline>
</glyph>
<glyph name="ma_marc.sub" format="2">
  <unicode hex="11CA1"/>
  <outline>
    <contour>
      <point x="-470" y="68" type="line"/>
      <point x="-470" y="-18" type="line"/>
      <point x="-360" y="-18" type="line"/>
      <point x="-360" y="-88" type="line"/>
      <point x="-470" y="-88" type="line"/>
      <point x="-470" y="-318" type="line"/>
      <point x="-277" y="-318" type="line"/>
      <point x="-277" y="-388" type="line"/>
      <point x="-470" y="-388" type="line"/>
      <point x="-470" y="-468" type="line"/>
      <point x="-191" y="-468" type="line"/>
      <point x="-191" y="-238" type="line"/>
      <point x="-384" y="-238" type="line"/>
      <point x="-384" y="-168" type="line"/>
      <point x="-191" y="-168" type="line"/>
      <point x="-191" y="-88" type="line"/>
      <point x="-264" y="-88" type="line"/>
      <point x="-264" y="-18" type="line"/>
      <point x="-121" y="-18" type="line"/>
      <point x="-121" y="-468" type="line"/>
      <point x="-25" y="-468" type="line"/>
      <point x="-25" y="68" type="line"/>
    </contour>
  </outline>
</glyph>
<glyph name="dza_marc.sub" format="2">
  <unicode hex="11CA4"/>
  <outline>
    <contour>
      <point x="-215" y="-168" type="line"/>
      <point x="-53" y="-168" type="line"/>
      <point x="-35" y="-88" type="line"/>
      <point x="-139" y="-88" type="line"/>
      <point x="-139" y="-18" type="line"/>
      <point x="-36" y="-18" type="line"/>
      <point x="-36" y="68" type="line"/>
      <point x="-467" y="68" type="line"/>
      <point x="-467" y="-531" type="line"/>
      <point x="-371" y="-531" type="line"/>
      <point x="-371" y="-18" type="line"/>
      <point x="-235" y="-18" type="line"/>
      <point x="-235" y="-88" type="line"/>
      <point x="-301" y="-88" type="line"/>
      <point x="-301" y="-318" type="line"/>
      <point x="-122" y="-318" type="line"/>
      <point x="-122" y="-410" type="line"/>
      <point x="-186" y="-392"/>
      <point x="-242" y="-385"/>
      <point x="-301" y="-385" type="curve"/>
      <point x="-301" y="-465" type="line"/>
      <point x="-210" y="-466"/>
      <point x="-141" y="-480"/>
      <point x="-36" y="-522" type="curve"/>
      <point x="-36" y="-238" type="line"/>
      <point x="-215" y="-238" type="line"/>
    </contour>
  </outline>
</glyph>
<glyph name="wa_marc.sub" format="2">
  <unicode hex="11CA5"/>
  <outline>
    <contour>
      <point x="-99" y="180" type="line"/>
      <point x="-99" y="55" type="line"/>
      <point x="-440" y="55" type="line"/>
      <point x="-440" y="-160" type="line"/>
      <point x="-3" y="-160" type="line"/>
      <point x="-3" y="180" type="line"/>
    </contour>
    <contour>
      <point x="-390" y="-74" type="line"/>
      <point x="-390" y="-31" type="line"/>
      <point x="-99" y="-31" type="line"/>
      <point x="-99" y="-74" type="line"/>
    </contour>
  </outline>
</glyph>
<glyph name="za_marc.sub" format="2">
  <unicode hex="11CA7"/>
  <outline>
    <contour>
      <point x="-493" y="69" type="line"/>
      <point x="-493" y="-17" type="line"/>
      <point x="-344" y="-17" type="line"/>
      <point x="-344" y="-87" type="line"/>
      <point x="-493" y="-87" type="line"/>
      <point x="-493" y="-173" type="line"/>
      <point x="-252" y="-173" type="line"/>
      <point x="-252" y="-243" type="line"/>
      <point x="-493" y="-243" type="line"/>
      <point x="-493" y="-531" type="line"/>
      <point x="-397" y="-531" type="line"/>
      <point x="-397" y="-329" type="line"/>
      <point x="-337" y="-329" type="line"/>
      <point x="-337" y="-485" type="line"/>
      <point x="-166" y="-485" type="line"/>
      <point x="-166" y="-399" type="line"/>
      <point x="-251" y="-399" type="line"/>
      <point x="-251" y="-329" type="line"/>
      <point x="-166" y="-329" type="line"/>
      <point x="-166" y="-87" type="line"/>
      <point x="-248" y="-87" type="line"/>
      <point x="-248" y="-17" type="line"/>
      <point x="-96" y="-17" type="line"/>
      <point x="-96" y="-531" type="line"/>
      <point x="0" y="-531" type="line"/>
      <point x="0" y="69" type="line"/>
    </contour>
  </outline>
</glyph>
<glyph name="la_marc.sub" format="2">
  <unicode hex="11CAB"/>
  <outline>
    <contour>
      <point x="-319" y="68" type="line"/>
      <point x="-319" y="-88" type="line"/>
      <point x="-389" y="-88" type="line"/>
      <point x="-389" y="68" type="line"/>
      <point x="-485" y="68" type="line"/>
      <point x="-485" y="-174" type="line"/>
      <point x="-271" y="-174" type="line"/>
      <point x="-271" y="-244" type="line"/>
      <point x="-485" y="-244" type="line"/>
      <point x="-485" y="-330" type="line"/>
      <point x="-175" y="-330" type="line"/>
      <point x="-175" y="-88" type="line"/>
      <point x="-223" y="-88" type="line"/>
      <point x="-223" y="-18" type="line"/>
      <point x="-105" y="-18" type="line"/>
      <point x="-105" y="-469" type="line"/>
      <point x="-9" y="-469" type="line"/>
      <point x="-9" y="68" type="line"/>
    </contour>
  </outline>
</glyph>
<glyph name="sa_marc.sub" format="2">
  <unicode hex="11CAD"/>
  <outline>
    <contour>
      <point x="-52" y="-18" type="line"/>
      <point x="-52" y="68" type="line"/>
      <point x="-442" y="68" type="line"/>
      <point x="-442" y="-174" type="line"/>
      <point x="-306" y="-174" type="line"/>
      <point x="-306" y="-244" type="line"/>
      <point x="-442" y="-244" type="line"/>
      <point x="-442" y="-469" type="line"/>
      <point x="-346" y="-469" type="line"/>
      <point x="-346" y="-329" type="line"/>
      <point x="-218" y="-329" type="line"/>
      <point x="-218" y="-174" type="line"/>
      <point x="-148" y="-174" type="line"/>
      <point x="-148" y="-469" type="line"/>
      <point x="-52" y="-469" type="line"/>
      <point x="-52" y="-88" type="line"/>
      <point x="-346" y="-88" type="line"/>
      <point x="-346" y="-18" type="line"/>
    </contour>
  </outline>
</glyph>
<glyph name="ha_marc.sub" format="2">
  <unicode hex="11CAE"/>
  <outline>
    <contour>
      <point x="-36" y="-18" type="line"/>
      <point x="-36" y="68" type="line"/>
      <point x="-457" y="68" type="line"/>
      <point x="-457" y="-174" type="line"/>
      <point x="-288" y="-174" type="line"/>
      <point x="-288" y="-244" type="line"/>
      <point x="-457" y="-244" type="line"/>
      <point x="-457" y="-330" type="line"/>
      <point x="-202" y="-330" type="line"/>
      <point x="-202" y="-174" type="line"/>
      <point x="-132" y="-174" type="line"/>
      <point x="-132" y="-469" type="line"/>
      <point x="-36" y="-469" type="line"/>
      <point x="-36" y="-88" type="line"/>
      <point x="-361" y="-88" type="line"/>
      <point x="-361" y="-18" type="line"/>
    </contour>
  </outline>
</glyph>
<glyph name="u_marc" format="2">
  <unicode hex="11CB2"/>
  <outline>
    <contour>
      <point x="-11" y="99" type="line"/>
      <point x="-107" y="99" type="line"/>
      <point x="-107" y="-64" type="line"/>
      <point x="-428" y="-64" type="line"/>
      <point x="-428" y="-150" type="line"/>
      <point x="-11" y="-150" type="line"/>
    </contour>
  </outline>
</glyph>
<glyph name="e_marc" format="2">
  <unicode hex="11CB3"/>
  <outline>
    <contour>
      <point x="490" y="520" type="line"/>
      <point x="490" y="678" type="line"/>
      <point x="60" y="678" type="line"/>
      <point x="60" y="592" type="line"/>
      <point x="394" y="592" type="line"/>
      <point x="394" y="520" type="line"/>
    </contour>
  </outline>
</glyph>
<glyph name="o_marc" format="2">
  <unicode hex="11CB4"/>
  <outline>
    <contour>
      <point x="-667" y="678" type="line"/>
      <point x="-667" y="592" type="line"/>
      <point x="-156" y="592" type="line"/>
      <point x="-156" y="59" type="line"/>
      <point x="-60" y="0" type="line"/>
      <point x="-60" y="678" type="line"/>
    </contour>
  </outline>
</glyph>
<glyph name="candrabindu_marc.narrow" format="2">
  <outline>
    <contour>
      <point x="-132" y="867" type="line"/>
      <point x="-269" y="708" type="line"/>
      <point x="-94" y="620" type="line"/>
      <point x="43" y="779" type="line"/>
    </contour>
    <contour>
      <point x="-107" y="794" type="line"/>
      <point x="-55" y="768" type="line"/>
      <point x="-120" y="692" type="line"/>
      <point x="-173" y="718" type="line"/>
    </contour>
    <contour>
      <point x="69" y="736" type="line"/>
      <point x="55" y="694"/>
      <point x="8" y="565"/>
      <point x="-117" y="565" type="curve" smooth="yes"/>
      <point x="-183" y="565"/>
      <point x="-241" y="598"/>
      <point x="-272" y="626" type="curve"/>
      <point x="-320" y="610" type="line"/>
      <point x="-291" y="564"/>
      <point x="-207" y="492"/>
      <point x="-102" y="492" type="curve" smooth="yes"/>
      <point x="71" y="492"/>
      <point x="140" y="653"/>
      <point x="160" y="705" type="curve"/>
    </contour>
  </outline>
</glyph>
<glyph name="da_wa.sub_u_marc" format="2">
  <advance width="551"/>
  <outline>
    <contour>
      <point x="491" y="678" type="line"/>
      <point x="60" y="678" type="line"/>
      <point x="60" y="440" type="line"/>
      <point x="229" y="440" type="line"/>
      <point x="229" y="370" type="line"/>
      <point x="60" y="370" type="line"/>
      <point x="60" y="150" type="line"/>
      <point x="136" y="150"/>
      <point x="207" y="149"/>
      <point x="277" y="84" type="curve"/>
      <point x="323" y="92" type="line"/>
      <point x="280" y="172"/>
      <point x="216" y="226"/>
      <point x="146" y="236" type="curve"/>
      <point x="146" y="285" type="line"/>
      <point x="325" y="285" type="line"/>
      <point x="325" y="522" type="line"/>
      <point x="156" y="522" type="line"/>
      <point x="156" y="592" type="line"/>
      <point x="395" y="592" type="line"/>
      <point x="395" y="47" type="line"/>
      <point x="60" y="47" type="line"/>
      <point x="60" y="-168" type="line"/>
      <point x="395" y="-168" type="line"/>
      <point x="395" y="-238" type="line"/>
      <point x="60" y="-238" type="line"/>
      <point x="60" y="-324" type="line"/>
      <point x="491" y="-324" type="line"/>
    </contour>
    <contour>
      <point x="110" y="-39" type="line"/>
      <point x="395" y="-39" type="line"/>
      <point x="395" y="-82" type="line"/>
      <point x="110" y="-82" type="line"/>
    </contour>
  </outline>
</glyph>
<glyph name="ka_wa.sub" format="2">
  <advance width="548"/>
  <outline>
    <contour>
      <point x="60" y="678" type="line"/>
      <point x="60" y="592" type="line"/>
      <point x="226" y="592" type="line"/>
      <point x="226" y="471" type="line"/>
      <point x="179" y="493"/>
      <point x="117" y="504"/>
      <point x="60" y="501" type="curve"/>
      <point x="60" y="200" type="line"/>
      <point x="156" y="141" type="line"/>
      <point x="156" y="417" type="line"/>
      <point x="180" y="419"/>
      <point x="202" y="414"/>
      <point x="226" y="402" type="curve"/>
      <point x="226" y="160" type="line"/>
      <point x="322" y="101" type="line"/>
      <point x="322" y="592" type="line"/>
      <point x="392" y="592" type="line"/>
      <point x="392" y="66" type="line"/>
      <point x="60" y="66" type="line"/>
      <point x="60" y="-149" type="line"/>
      <point x="488" y="-149" type="line"/>
      <point x="488" y="678" type="line"/>
    </contour>
    <contour>
      <point x="392" y="-63" type="line"/>
      <point x="110" y="-63" type="line"/>
      <point x="110" y="-20" type="line"/>
      <point x="392" y="-20" type="line"/>
    </contour>
  </outline>
</glyph>
<glyph name="ka_wa.sub_o_marc" format="2">
  <advance width="714"/>
  <outline>
    <contour>
      <point x="61" y="678" type="line"/>
      <point x="61" y="592" type="line"/>
      <point x="558" y="592" type="line"/>
      <point x="558" y="-309" type="line"/>
      <point x="654" y="-368" type="line"/>
      <point x="654" y="678" type="line"/>
    </contour>
    <contour>
      <point x="60" y="446" type="line"/>
      <point x="226" y="446" type="line"/>
      <point x="226" y="325" type="line"/>
      <point x="179" y="347"/>
      <point x="117" y="358"/>
      <point x="60" y="355" type="curve"/>
      <point x="60" y="54" type="line"/>
      <point x="156" y="-5" type="line"/>
      <point x="156" y="271" type="line"/>
      <point x="180" y="273"/>
      <point x="202" y="268"/>
      <point x="226" y="256" type="curve"/>
      <point x="226" y="14" type="line"/>
      <point x="322" y="-45" type="line"/>
      <point x="322" y="446" type="line"/>
      <point x="392" y="446" type="line"/>
      <point x="392" y="-95" type="line"/>
      <point x="60" y="-95" type="line"/>
      <point x="60" y="-310" type="line"/>
      <point x="488" y="-310" type="line"/>
      <point x="488" y="532" type="line"/>
      <point x="60" y="532" type="line"/>
    </contour>
    <contour>
      <point x="392" y="-224" type="line"/>
      <point x="110" y="-224" type="line"/>
      <point x="110" y="-181" type="line"/>
      <point x="392" y="-181" type="line"/>
    </contour>
  </outline>
</glyph>
<glyph name="la_ha.sub_e_marc" format="2">
  <advance width="596"/>
  <outline>
    <contour>
      <point x="60" y="678" type="line"/>
      <point x="60" y="592" type="line"/>
      <point x="440" y="592" type="line"/>
      <point x="440" y="530" type="line"/>
      <point x="226" y="530" type="line"/>
      <point x="226" y="374" type="line"/>
      <point x="156" y="374" type="line"/>
      <point x="156" y="530" type="line"/>
      <point x="60" y="530" type="line"/>
      <point x="60" y="288" type="line"/>
      <point x="274" y="288" type="line"/>
      <point x="274" y="218" type="line"/>
      <point x="60" y="218" type="line"/>
      <point x="60" y="132" type="line"/>
      <point x="370" y="132" type="line"/>
      <point x="370" y="374" type="line"/>
      <point x="322" y="374" type="line"/>
      <point x="322" y="444" type="line"/>
      <point x="440" y="444" type="line"/>
      <point x="440" y="132" type="line"/>
      <point x="536" y="132" type="line"/>
      <point x="536" y="678" type="line"/>
    </contour>
    <contour>
      <point x="60" y="-170" type="line"/>
      <point x="283" y="-170" type="line"/>
      <point x="283" y="-240" type="line"/>
      <point x="60" y="-240" type="line"/>
      <point x="60" y="-326" type="line"/>
      <point x="369" y="-326" type="line"/>
      <point x="369" y="-170" type="line"/>
      <point x="439" y="-170" type="line"/>
      <point x="439" y="-406" type="line"/>
      <point x="535" y="-465" type="line"/>
      <point x="535" y="-84" type="line"/>
      <point x="156" y="-84" type="line"/>
      <point x="156" y="-14" type="line"/>
      <point x="535" y="-14" type="line"/>
      <point x="535" y="72" type="line"/>
      <point x="60" y="72" type="line"/>
    </contour>
  </outline>
</glyph>
<glyph name="la_u_marc" format="2">
  <advance width="596"/>
  <outline>
    <contour>
      <point x="226" y="678" type="line"/>
      <point x="226" y="522" type="line"/>
      <point x="156" y="522" type="line"/>
      <point x="156" y="678" type="line"/>
      <point x="60" y="678" type="line"/>
      <point x="60" y="436" type="line"/>
      <point x="274" y="436" type="line"/>
      <point x="274" y="366" type="line"/>
      <point x="60" y="366" type="line"/>
      <point x="60" y="280" type="line"/>
      <point x="370" y="280" type="line"/>
      <point x="370" y="522" type="line"/>
      <point x="322" y="522" type="line"/>
      <point x="322" y="592" type="line"/>
      <point x="440" y="592" type="line"/>
      <point x="440" y="164" type="line"/>
      <point x="60" y="164" type="line"/>
      <point x="60" y="78" type="line"/>
      <point x="536" y="78" type="line"/>
      <point x="536" y="678" type="line"/>
    </contour>
  </outline>
</glyph>
<glyph name="la_wa.sub_o_marc" format="2">
  <advance width="762"/>
  <outline>
    <contour>
      <point x="61" y="678" type="line"/>
      <point x="61" y="592" type="line"/>
      <point x="606" y="592" type="line"/>
      <point x="606" y="-159" type="line"/>
      <point x="702" y="-218" type="line"/>
      <point x="702" y="678" type="line"/>
    </contour>
    <contour>
      <point x="226" y="376" type="line"/>
      <point x="156" y="376" type="line"/>
      <point x="156" y="532" type="line"/>
      <point x="60" y="532" type="line"/>
      <point x="60" y="290" type="line"/>
      <point x="274" y="290" type="line"/>
      <point x="274" y="220" type="line"/>
      <point x="60" y="220" type="line"/>
      <point x="60" y="134" type="line"/>
      <point x="370" y="134" type="line"/>
      <point x="370" y="376" type="line"/>
      <point x="322" y="376" type="line"/>
      <point x="322" y="446" type="line"/>
      <point x="440" y="446" type="line"/>
      <point x="440" y="64" type="line"/>
      <point x="60" y="64" type="line"/>
      <point x="60" y="-151" type="line"/>
      <point x="536" y="-151" type="line"/>
      <point x="536" y="532" type="line"/>
      <point x="226" y="532" type="line"/>
    </contour>
    <contour>
      <point x="440" y="-65" type="line"/>
      <point x="110" y="-65" type="line"/>
      <point x="110" y="-22" type="line"/>
      <point x="440" y="-22" type="line"/>
    </contour>
  </outline>
</glyph>
<glyph name="ma_i_marc" format="2">
  <advance width="731"/>
  <outline>
    <contour>
      <point x="394" y="678" type="line"/>
      <point x="360" y="759"/>
      <point x="288" y="869"/>
      <point x="185" y="869" type="curve" smooth="yes"/>
      <point x="108" y="869"/>
      <point x="60" y="808"/>
      <point x="60" y="714" type="curve" smooth="yes"/>
      <point x="60" y="138" type="line"/>
      <point x="156" y="79" type="line"/>
      <point x="156" y="717" type="line" smooth="yes"/>
      <point x="156" y="768"/>
      <point x="169" y="797"/>
      <point x="212" y="797" type="curve" smooth="yes"/>
      <point x="277" y="797"/>
      <point x="332" y="731"/>
      <point x="361" y="678" type="curve"/>
      <point x="226" y="678" type="line"/>
      <point x="226" y="592" type="line"/>
      <point x="336" y="592" type="line"/>
      <point x="336" y="522" type="line"/>
      <point x="226" y="522" type="line"/>
      <point x="226" y="292" type="line"/>
      <point x="419" y="292" type="line"/>
      <point x="419" y="222" type="line"/>
      <point x="226" y="222" type="line"/>
      <point x="226" y="142" type="line"/>
      <point x="505" y="142" type="line"/>
      <point x="505" y="372" type="line"/>
      <point x="312" y="372" type="line"/>
      <point x="312" y="442" type="line"/>
      <point x="505" y="442" type="line"/>
      <point x="505" y="522" type="line"/>
      <point x="432" y="522" type="line"/>
      <point x="432" y="592" type="line"/>
      <point x="575" y="592" type="line"/>
      <point x="575" y="135" type="line"/>
      <point x="671" y="76" type="line"/>
      <point x="671" y="678" type="line"/>
    </contour>
  </outline>
</glyph>
<glyph name="nya_e_marc" format="2">
  <advance width="714"/>
  <outline>
    <contour>
      <point x="60" y="678" type="line"/>
      <point x="60" y="592" type="line"/>
      <point x="558" y="592" type="line"/>
      <point x="558" y="532" type="line"/>
      <point x="60" y="532" type="line"/>
      <point x="60" y="290" type="line"/>
      <point x="226" y="290" type="line"/>
      <point x="226" y="220" type="line"/>
      <point x="60" y="220" type="line"/>
      <point x="60" y="-22" type="line"/>
      <point x="156" y="-22" type="line"/>
      <point x="156" y="134" type="line"/>
      <point x="226" y="134" type="line"/>
      <point x="226" y="-22" type="line"/>
      <point x="494" y="-22" type="line"/>
      <point x="494" y="64" type="line"/>
      <point x="322" y="64" type="line"/>
      <point x="322" y="134" type="line"/>
      <point x="488" y="134" type="line"/>
      <point x="488" y="376" type="line"/>
      <point x="392" y="376" type="line"/>
      <point x="392" y="220" type="line"/>
      <point x="322" y="220" type="line"/>
      <point x="322" y="376" type="line"/>
      <point x="156" y="376" type="line"/>
      <point x="156" y="446" type="line"/>
      <point x="558" y="446" type="line"/>
      <point x="558" y="-23" type="line"/>
      <point x="654" y="-82" type="line"/>
      <point x="654" y="678" type="line"/>
    </contour>
  </outline>
</glyph>
<glyph name="nya_o_marc" format="2">
  <advance width="860"/>
  <outline>
    <contour>
      <point x="60" y="678" type="line"/>
      <point x="60" y="592" type="line"/>
      <point x="704" y="592" type="line"/>
      <point x="704" y="-81" type="line"/>
      <point x="800" y="-140" type="line"/>
      <point x="800" y="678" type="line"/>
    </contour>
    <contour>
      <point x="60" y="290" type="line"/>
      <point x="216" y="290" type="line"/>
      <point x="216" y="220" type="line"/>
      <point x="60" y="220" type="line"/>
      <point x="60" y="-22" type="line"/>
      <point x="156" y="-22" type="line"/>
      <point x="156" y="134" type="line"/>
      <point x="216" y="134" type="line"/>
      <point x="216" y="-22" type="line"/>
      <point x="474" y="-22" type="line"/>
      <point x="474" y="64" type="line"/>
      <point x="312" y="64" type="line"/>
      <point x="312" y="134" type="line"/>
      <point x="468" y="134" type="line"/>
      <point x="468" y="376" type="line"/>
      <point x="372" y="376" type="line"/>
      <point x="372" y="220" type="line"/>
      <point x="312" y="220" type="line"/>
      <point x="312" y="376" type="line"/>
      <point x="156" y="376" type="line"/>
      <point x="156" y="446" type="line"/>
      <point x="538" y="446" type="line"/>
      <point x="538" y="-23" type="line"/>
      <point x="634" y="-82" type="line"/>
      <point x="634" y="532" type="line"/>
      <point x="60" y="532" type="line"/>
    </contour>
  </outline>
</glyph>
<glyph name="pha_ya.sub" format="2">
  <advance width="812"/>
  <outline>
    <contour>
      <point x="656" y="678" type="line"/>
      <point x="656" y="152" type="line"/>
      <point x="586" y="152" type="line"/>
      <point x="586" y="678" type="line"/>
      <point x="60" y="678" type="line"/>
      <point x="60" y="299" type="line"/>
      <point x="196" y="299" type="line"/>
      <point x="196" y="229" type="line"/>
      <point x="60" y="229" type="line"/>
      <point x="60" y="143" type="line"/>
      <point x="420" y="143" type="line"/>
      <point x="420" y="229" type="line"/>
      <point x="282" y="229" type="line"/>
      <point x="282" y="299" type="line"/>
      <point x="420" y="299" type="line"/>
      <point x="420" y="522" type="line"/>
      <point x="146" y="522" type="line"/>
      <point x="146" y="592" type="line"/>
      <point x="490" y="592" type="line"/>
      <point x="490" y="78" type="line"/>
      <point x="752" y="78" type="line"/>
      <point x="752" y="678" type="line"/>
    </contour>
    <contour>
      <point x="334" y="436" type="line"/>
      <point x="334" y="385" type="line"/>
      <point x="146" y="385" type="line"/>
      <point x="146" y="436" type="line"/>
    </contour>
  </outline>
</glyph>
<glyph name="sa_ba.sub_e_marc" format="2">
  <advance width="550"/>
  <outline>
    <contour>
      <point x="60" y="678" type="line"/>
      <point x="60" y="592" type="line"/>
      <point x="394" y="592" type="line"/>
      <point x="394" y="532" type="line"/>
      <point x="60" y="532" type="line"/>
      <point x="60" y="290" type="line"/>
      <point x="236" y="290" type="line"/>
      <point x="236" y="220" type="line"/>
      <point x="60" y="220" type="line"/>
      <point x="60" y="-5" type="line"/>
      <point x="156" y="-5" type="line"/>
      <point x="156" y="135" type="line"/>
      <point x="324" y="135" type="line"/>
      <point x="324" y="290" type="line"/>
      <point x="394" y="290" type="line"/>
      <point x="394" y="-5" type="line"/>
      <point x="490" y="-5" type="line"/>
      <point x="490" y="376" type="line"/>
      <point x="156" y="376" type="line"/>
      <point x="156" y="446" type="line"/>
      <point x="490" y="446" type="line"/>
      <point x="490" y="678" type="line"/>
    </contour>
    <contour>
      <point x="60" y="-65" type="line"/>
      <point x="60" y="-297" type="line"/>
      <point x="160" y="-297" type="line"/>
      <point x="160" y="-357" type="line"/>
      <point x="60" y="-357" type="line"/>
      <point x="60" y="-579" type="line"/>
      <point x="342" y="-579" type="line"/>
      <point x="342" y="-357" type="line"/>
      <point x="246" y="-357" type="line"/>
      <point x="246" y="-297" type="line"/>
      <point x="342" y="-297" type="line"/>
      <point x="342" y="-211" type="line"/>
      <point x="146" y="-211" type="line"/>
      <point x="146" y="-151" type="line"/>
      <point x="394" y="-151" type="line"/>
      <point x="394" y="-605" type="line"/>
      <point x="490" y="-664" type="line"/>
      <point x="490" y="-65" type="line"/>
    </contour>
    <contour>
      <point x="292" y="-493" type="line"/>
      <point x="110" y="-493" type="line"/>
      <point x="110" y="-443" type="line"/>
      <point x="292" y="-443" type="line"/>
    </contour>
  </outline>
</glyph>
<glyph name="sa_la.sub" format="2">
  <advance width="576"/>
  <outline>
    <contour>
      <point x="516" y="592" type="line"/>
      <point x="516" y="678" type="line"/>
      <point x="60" y="678" type="line"/>
      <point x="60" y="436" type="line"/>
      <point x="262" y="436" type="line"/>
      <point x="262" y="366" type="line"/>
      <point x="60" y="366" type="line"/>
      <point x="60" y="141" type="line"/>
      <point x="156" y="141" type="line"/>
      <point x="156" y="281" type="line"/>
      <point x="350" y="281" type="line"/>
      <point x="350" y="436" type="line"/>
      <point x="420" y="436" type="line"/>
      <point x="420" y="141" type="line"/>
      <point x="516" y="141" type="line"/>
      <point x="516" y="522" type="line"/>
      <point x="156" y="522" type="line"/>
      <point x="156" y="592" type="line"/>
    </contour>
    <contour>
      <point x="216" y="-75" type="line"/>
      <point x="156" y="-75" type="line"/>
      <point x="156" y="81" type="line"/>
      <point x="60" y="81" type="line"/>
      <point x="60" y="-161" type="line"/>
      <point x="274" y="-161" type="line"/>
      <point x="274" y="-231" type="line"/>
      <point x="60" y="-231" type="line"/>
      <point x="60" y="-317" type="line"/>
      <point x="370" y="-317" type="line"/>
      <point x="370" y="-75" type="line"/>
      <point x="312" y="-75" type="line"/>
      <point x="312" y="-5" type="line"/>
      <point x="420" y="-5" type="line"/>
      <point x="420" y="-397" type="line"/>
      <point x="516" y="-456" type="line"/>
      <point x="516" y="81" type="line"/>
      <point x="216" y="81" type="line"/>
    </contour>
  </outline>
</glyph>
<glyph name="ta_o_marc" format="2">
  <advance width="785"/>
  <outline>
    <contour>
      <point x="60" y="678" type="line"/>
      <point x="60" y="592" type="line"/>
      <point x="629" y="592" type="line"/>
      <point x="629" y="-109" type="line"/>
      <point x="725" y="-168" type="line"/>
      <point x="725" y="678" type="line"/>
    </contour>
    <contour>
      <point x="60" y="446" type="line"/>
      <point x="156" y="446" type="line"/>
      <point x="156" y="376" type="line"/>
      <point x="60" y="376" type="line"/>
      <point x="60" y="140" type="line"/>
      <point x="151" y="140" type="line"/>
      <point x="151" y="80" type="line"/>
      <point x="60" y="80" type="line"/>
      <point x="60" y="-5" type="line"/>
      <point x="237" y="-5" type="line"/>
      <point x="237" y="140" type="line"/>
      <point x="307" y="140" type="line"/>
      <point x="307" y="-12" type="line"/>
      <point x="393" y="-65" type="line"/>
      <point x="393" y="226" type="line"/>
      <point x="156" y="226" type="line"/>
      <point x="156" y="290" type="line"/>
      <point x="393" y="290" type="line"/>
      <point x="393" y="376" type="line"/>
      <point x="252" y="376" type="line"/>
      <point x="252" y="446" type="line"/>
      <point x="463" y="446" type="line"/>
      <point x="463" y="-59" type="line"/>
      <point x="559" y="-118" type="line"/>
      <point x="559" y="532" type="line"/>
      <point x="60" y="532" type="line"/>
    </contour>
  </outline>
</glyph>
<glyph name="tha_o_marc" format="2">
  <advance width="715"/>
  <outline>
    <contour>
      <point x="60" y="678" type="line"/>
      <point x="60" y="592" type="line"/>
      <point x="559" y="592" type="line"/>
      <point x="559" y="-28" type="line"/>
      <point x="655" y="-87" type="line"/>
      <point x="655" y="678" type="line"/>
    </contour>
    <contour>
      <point x="61" y="446" type="line"/>
      <point x="393" y="446" type="line"/>
      <point x="393" y="58" type="line"/>
      <point x="323" y="58" type="line"/>
      <point x="323" y="376" type="line"/>
      <point x="61" y="376" type="line"/>
      <point x="61" y="290" type="line"/>
      <point x="227" y="290" type="line"/>
      <point x="227" y="220" type="line"/>
      <point x="61" y="220" type="line"/>
      <point x="61" y="-2" type="line"/>
      <point x="157" y="-61" type="line"/>
      <point x="157" y="134" type="line"/>
      <point x="227" y="134" type="line"/>
      <point x="227" y="-28" type="line"/>
      <point x="489" y="-28" type="line"/>
      <point x="489" y="532" type="line"/>
      <point x="61" y="532" type="line"/>
    </contour>
  </outline>
</glyph>
<glyph name="wa_o_marc" format="2">
  <advance width="750"/>
  <outline>
    <contour>
      <point x="60" y="678" type="line"/>
      <point x="60" y="592" type="line"/>
      <point x="594" y="592" type="line"/>
      <point x="594" y="-61" type="line"/>
      <point x="690" y="-120" type="line"/>
      <point x="690" y="678" type="line"/>
    </contour>
    <contour>
      <point x="60" y="446" type="line"/>
      <point x="308" y="446" type="line"/>
      <point x="308" y="386" type="line"/>
      <point x="60" y="386" type="line"/>
      <point x="60" y="302" type="line"/>
      <point x="308" y="302" type="line"/>
      <point x="308" y="242" type="line"/>
      <point x="60" y="242" type="line"/>
      <point x="60" y="24" type="line"/>
      <point x="358" y="24" type="line"/>
      <point x="358" y="302" type="line"/>
      <point x="428" y="302" type="line"/>
      <point x="428" y="17" type="line"/>
      <point x="524" y="-42" type="line"/>
      <point x="524" y="532" type="line"/>
      <point x="60" y="532" type="line"/>
    </contour>
    <contour>
      <point x="428" y="386" type="line"/>
      <point x="358" y="386" type="line"/>
      <point x="358" y="446" type="line"/>
      <point x="428" y="446" type="line"/>
    </contour>
    <contour>
      <point x="307" y="110" type="line"/>
      <point x="110" y="110" type="line"/>
      <point x="110" y="156" type="line"/>
      <point x="307" y="156" type="line"/>
    </contour>
  </outline>
</glyph>
